<?xml version="1.0" encoding="iso-8859-1"?>
<!-- Generator: Adobe Illustrator 19.0.0, SVG Export Plug-In . SVG Version: 6.00 Build 0)  -->
<svg version="1.1" id="Capa_1" xmlns="http://www.w3.org/2000/svg" xmlns:xlink="http://www.w3.org/1999/xlink" x="0px" y="0px"
	 viewBox="0 0 490.667 490.667" style="enable-background:new 0 0 490.667 490.667;" xml:space="preserve">
<g>
	<path style="fill:#607D8B;" d="M472.306,216.525L245.192,443.661L18.077,216.525c-4.237-4.093-10.99-3.975-15.083,0.262
		c-3.992,4.134-3.992,10.687,0,14.82l234.667,234.667c4.165,4.164,10.917,4.164,15.083,0L487.41,231.608
		c4.093-4.237,3.975-10.99-0.262-15.083c-4.134-3.993-10.687-3.993-14.821,0L472.306,216.525z"/>
	<path style="fill:#607D8B;" d="M472.306,24.525L245.192,251.661L18.077,24.525c-4.237-4.093-10.99-3.975-15.083,0.262
		c-3.992,4.134-3.992,10.687,0,14.821l234.667,234.667c4.165,4.164,10.917,4.164,15.083,0L487.41,39.608
		c4.237-4.093,4.354-10.845,0.262-15.083s-10.845-4.354-15.083-0.262c-0.089,0.086-0.176,0.173-0.262,0.262L472.306,24.525z"/>
</g>
<g>
</g>
<g>
</g>
<g>
</g>
<g>
</g>
<g>
</g>
<g>
</g>
<g>
</g>
<g>
</g>
<g>
</g>
<g>
</g>
<g>
</g>
<g>
</g>
<g>
</g>
<g>
</g>
<g>
</g>
</svg>
